<svg width="20" height="20" viewBox="0 0 20 20" fill="none" xmlns="http://www.w3.org/2000/svg">
<path fill-rule="evenodd" clip-rule="evenodd" d="M10.0011 17.0885C10.9313 17.0885 11.8524 16.9053 12.7118 16.5493C13.5713 16.1933 14.3521 15.6716 15.0099 15.0138C15.6677 14.356 16.1894 13.5752 16.5454 12.7158C16.9014 11.8563 17.0846 10.9352 17.0846 10.005C17.0846 9.07479 16.9014 8.15368 16.5454 7.29427C16.1894 6.43486 15.6677 5.65398 15.0099 4.99621C14.3521 4.33845 13.5713 3.81668 12.7118 3.4607C11.8524 3.10472 10.9313 2.9215 10.0011 2.9215C9.07089 2.9215 8.14977 3.10472 7.29036 3.4607C6.43095 3.81668 5.65007 4.33845 4.99231 4.99621C4.33454 5.65398 3.81277 6.43486 3.45679 7.29427C3.10082 8.15368 2.91759 9.07479 2.91759 10.005C2.91759 10.9352 3.10081 11.8563 3.45679 12.7158C3.81277 13.5752 4.33454 14.356 4.99231 15.0138C5.65007 15.6716 6.43095 16.1933 7.29036 16.5493C8.14977 16.9053 9.07088 17.0885 10.0011 17.0885ZM13.0308 17.3192C12.0702 17.7171 11.0408 17.9219 10.0011 17.9219C8.96145 17.9219 7.93197 17.7171 6.97145 17.3192C6.01093 16.9214 5.13818 16.3382 4.40304 15.6031C3.66789 14.8679 3.08473 13.9952 2.68688 13.0347C2.28902 12.0741 2.08424 11.0447 2.08424 10.005C2.08424 8.96535 2.28902 7.93588 2.68688 6.97536C3.08474 6.01484 3.66789 5.14209 4.40304 4.40694C5.13819 3.67179 6.01093 3.08864 6.97145 2.69078C7.93197 2.29292 8.96145 2.08815 10.0011 2.08815C11.0408 2.08815 12.0702 2.29292 13.0308 2.69078C13.9913 3.08864 14.864 3.67179 15.5992 4.40694C16.3343 5.14209 16.9175 6.01484 17.3153 6.97536C17.7132 7.93588 17.918 8.96535 17.918 10.005C17.918 11.0447 17.7132 12.0741 17.3153 13.0347C16.9175 13.9952 16.3343 14.8679 15.5992 15.6031C14.864 16.3382 13.9913 16.9214 13.0308 17.3192Z" fill="black" stroke="black" stroke-width="0.5"/>
<path fill-rule="evenodd" clip-rule="evenodd" d="M13.0113 8.20595L8.96682 12.4752L6.78906 10.2974L7.37833 9.70813L8.95067 11.2805L12.4064 7.63281L13.0113 8.20595Z" fill="black" stroke="black" stroke-width="0.5"/>
</svg>
