<svg width="20" height="20" viewBox="0 0 20 20" fill="none" xmlns="http://www.w3.org/2000/svg">
<path fill-rule="evenodd" clip-rule="evenodd" d="M12.4987 4.99739L16.6654 4.99739L16.6654 10L15.832 10L15.832 5.83073L4.16536 5.83073L4.16537 17.4974L10 17.4974L10 18.3307L3.33203 18.3307L3.33203 4.9974L7.4987 4.9974L7.4987 3.33073C7.4987 2.41406 8.2487 1.66406 9.16536 1.66406L10.832 1.66406C11.7487 1.66406 12.4987 2.41406 12.4987 3.33073L12.4987 4.99739ZM9.16536 2.4974C8.70578 2.4974 8.33203 2.87115 8.33203 3.33073L8.33203 4.9974L11.6654 4.9974L11.6654 3.33073C11.6654 2.87114 11.2916 2.4974 10.832 2.4974L9.16536 2.4974Z" fill="black"/>
<path d="M16.6654 4.99739L16.9154 4.99739L16.9154 4.74739L16.6654 4.74739L16.6654 4.99739ZM12.4987 4.99739L12.2487 4.99739L12.2487 5.24739L12.4987 5.24739L12.4987 4.99739ZM16.6654 10L16.6654 10.25L16.9154 10.25L16.9154 10L16.6654 10ZM15.832 10L15.582 10L15.582 10.25L15.832 10.25L15.832 10ZM15.832 5.83073L16.082 5.83073L16.082 5.58073L15.832 5.58073L15.832 5.83073ZM4.16536 5.83073L4.16536 5.58073L3.91536 5.58073L3.91536 5.83073L4.16536 5.83073ZM4.16537 17.4974L3.91537 17.4974L3.91537 17.7474L4.16537 17.7474L4.16537 17.4974ZM10 17.4974L10.25 17.4974L10.25 17.2474L10 17.2474L10 17.4974ZM10 18.3307L10 18.5807L10.25 18.5807L10.25 18.3307L10 18.3307ZM3.33203 18.3307L3.08203 18.3307L3.08203 18.5807L3.33203 18.5807L3.33203 18.3307ZM3.33203 4.9974L3.33203 4.7474L3.08203 4.7474L3.08203 4.9974L3.33203 4.9974ZM7.4987 4.9974L7.4987 5.2474L7.7487 5.2474L7.7487 4.9974L7.4987 4.9974ZM7.4987 3.33073L7.7487 3.33073L7.4987 3.33073ZM12.4987 3.33073L12.7487 3.33073L12.4987 3.33073ZM8.33203 3.33073L8.58203 3.33073L8.33203 3.33073ZM8.33203 4.9974L8.08203 4.9974L8.08203 5.2474L8.33203 5.2474L8.33203 4.9974ZM11.6654 4.9974L11.6654 5.2474L11.9154 5.2474L11.9154 4.9974L11.6654 4.9974ZM11.6654 3.33073L11.9154 3.33073L11.6654 3.33073ZM16.6654 4.74739L12.4987 4.74739L12.4987 5.24739L16.6654 5.24739L16.6654 4.74739ZM16.9154 10L16.9154 4.99739L16.4154 4.99739L16.4154 10L16.9154 10ZM15.832 10.25L16.6654 10.25L16.6654 9.75L15.832 9.75L15.832 10.25ZM15.582 5.83073L15.582 10L16.082 10L16.082 5.83073L15.582 5.83073ZM4.16536 6.08073L15.832 6.08073L15.832 5.58073L4.16536 5.58073L4.16536 6.08073ZM4.41537 17.4974L4.41536 5.83073L3.91536 5.83073L3.91537 17.4974L4.41537 17.4974ZM10 17.2474L4.16537 17.2474L4.16537 17.7474L10 17.7474L10 17.2474ZM10.25 18.3307L10.25 17.4974L9.75 17.4974L9.75 18.3307L10.25 18.3307ZM3.33203 18.5807L10 18.5807L10 18.0807L3.33203 18.0807L3.33203 18.5807ZM3.08203 4.9974L3.08203 18.3307L3.58203 18.3307L3.58203 4.9974L3.08203 4.9974ZM7.4987 4.7474L3.33203 4.7474L3.33203 5.2474L7.4987 5.2474L7.4987 4.7474ZM7.2487 3.33073L7.2487 4.9974L7.7487 4.9974L7.7487 3.33073L7.2487 3.33073ZM9.16536 1.41406C8.11063 1.41406 7.2487 2.27599 7.2487 3.33073L7.7487 3.33073C7.7487 2.55213 8.38677 1.91406 9.16536 1.91406L9.16536 1.41406ZM10.832 1.41406L9.16536 1.41406L9.16536 1.91406L10.832 1.91406L10.832 1.41406ZM12.7487 3.33073C12.7487 2.27599 11.8868 1.41406 10.832 1.41406L10.832 1.91406C11.6106 1.91406 12.2487 2.55213 12.2487 3.33073L12.7487 3.33073ZM12.7487 4.99739L12.7487 3.33073L12.2487 3.33073L12.2487 4.99739L12.7487 4.99739ZM8.58203 3.33073C8.58203 3.00922 8.84385 2.7474 9.16536 2.7474L9.16536 2.2474C8.56771 2.2474 8.08203 2.73307 8.08203 3.33073L8.58203 3.33073ZM8.58203 4.9974L8.58203 3.33073L8.08203 3.33073L8.08203 4.9974L8.58203 4.9974ZM11.6654 4.7474L8.33203 4.7474L8.33203 5.2474L11.6654 5.2474L11.6654 4.7474ZM11.4154 3.33073L11.4154 4.9974L11.9154 4.9974L11.9154 3.33073L11.4154 3.33073ZM10.832 2.7474C11.1535 2.7474 11.4154 3.00922 11.4154 3.33073L11.9154 3.33073C11.9154 2.73307 11.4297 2.2474 10.832 2.2474L10.832 2.7474ZM9.16536 2.7474L10.832 2.7474L10.832 2.2474L9.16536 2.2474L9.16536 2.7474Z" fill="black"/>
<rect x="7.5" y="3.32812" width="0.833333" height="3.33333" fill="black" stroke="black" stroke-width="0.5"/>
<rect x="11.6641" y="3.32812" width="0.833333" height="3.33333" fill="black" stroke="black" stroke-width="0.5"/>
<path fill-rule="evenodd" clip-rule="evenodd" d="M11.6016 10.375L18.7956 13.7322L16.7487 15.177L18.5833 17.4934L15.5211 19.5569L13.5826 16.7192L11.6016 17.8842L11.6016 10.375ZM12.4016 11.6312L12.4016 16.4856L13.8215 15.6506L15.7333 18.4492L17.4198 17.3128L15.5967 15.011L17.2075 13.8739L12.4016 11.6312Z" fill="black" stroke="black" stroke-width="0.5"/>
</svg>
