<svg width="20" height="20" viewBox="0 0 20 20" fill="none" xmlns="http://www.w3.org/2000/svg">
<path d="M2.4974 2.5L12.4974 2.5C13.4141 2.5 14.1641 3.25 14.1641 4.16667L14.1641 5.83333C16.9141 5.83333 19.1641 8.08333 19.1641 10.8333L19.1641 15.8333L17.4974 15.8333C17.4974 17.2142 16.3782 18.3333 14.9974 18.3333C13.6166 18.3333 12.4974 17.2142 12.4974 15.8333L9.16406 15.8333C9.16406 17.2142 8.0449 18.3333 6.66406 18.3333C5.28323 18.3333 4.16407 17.2142 4.16407 15.8333L2.4974 15.8333C1.58073 15.8333 0.830732 15.0833 0.830731 14.1667L0.830731 4.16667C0.830731 3.25 1.58073 2.5 2.4974 2.5ZM1.66407 14.1667C1.66407 14.6263 2.03781 15 2.4974 15L4.30948 15C4.65323 14.0296 5.57615 13.3333 6.66406 13.3333C7.75198 13.3333 8.67531 14.0296 9.01865 15L12.4974 15C12.5491 15 12.5991 14.9938 12.6482 14.9846C12.7899 14.5925 13.0261 14.2467 13.3307 13.9733L13.3307 4.16667C13.3307 3.70708 12.957 3.33333 12.4974 3.33333L2.4974 3.33333C2.03781 3.33333 1.66406 3.70708 1.66406 4.16667L1.66407 14.1667ZM4.9974 15.8333C4.9974 16.7525 5.7449 17.5 6.66406 17.5C7.58323 17.5 8.33073 16.7525 8.33073 15.8333C8.33073 14.9142 7.58323 14.1667 6.66406 14.1667C5.7449 14.1667 4.9974 14.9142 4.9974 15.8333ZM13.3307 15.8333C13.3307 16.7525 14.0782 17.5 14.9974 17.5C15.9166 17.5 16.6641 16.7525 16.6641 15.8333C16.6641 14.9142 15.9166 14.1667 14.9974 14.1667C14.0782 14.1667 13.3307 14.9142 13.3307 15.8333ZM14.1641 6.66667L14.1641 10.4167L18.3095 10.4167C18.0999 8.31417 16.3207 6.66667 14.1641 6.66667ZM18.3307 15L18.3307 11.25L14.1641 11.25L14.1641 13.4787C14.4249 13.3862 14.7049 13.3333 14.9974 13.3333C16.0853 13.3333 17.0086 14.0296 17.352 15L18.3307 15Z" fill="black" stroke="black" stroke-width="0.5"/>
</svg>
