<svg width="21" height="20" viewBox="0 0 21 20" fill="none" xmlns="http://www.w3.org/2000/svg">
<path d="M15.0723 1C12.4427 1 10.2939 3.072 10.1578 5.66842L10.1445 5.66842L10.1445 6.18713L10.1578 6.18713C10.2893 8.69693 12.3032 10.7108 14.813 10.8423L14.813 10.8556L15.3317 10.8556L15.3317 10.8423C17.9281 10.7062 20.0001 8.55739 20.0001 5.92778C20.0001 3.2105 17.7896 0.999999 15.0723 1ZM15.3317 10.3236L15.3317 8.52134L14.813 8.52134L14.813 10.3236C12.589 10.1934 10.8067 8.41112 10.6765 6.18713L12.4787 6.18713L12.4787 5.66842L10.6765 5.66842C10.8119 3.35807 12.7288 1.51871 15.0723 1.51871C17.5035 1.51871 19.4814 3.49657 19.4814 5.92778C19.4814 8.27158 17.642 10.1882 15.3317 10.3236Z" fill="black" stroke="black" stroke-width="0.475"/>
<path d="M15.3312 3.33594L14.8125 3.33594L14.8125 5.67015L14.8125 6.18886L17.6654 6.18886L17.6654 5.67015L15.3312 5.67015L15.3312 3.33594Z" fill="black" stroke="black" stroke-width="0.475"/>
<path fill-rule="evenodd" clip-rule="evenodd" d="M9.1324 6.5625L2.56887 6.5625C1.70599 6.5625 1 7.26849 1 8.13137L1 17.5446C1 18.4074 1.70599 19.1134 2.56887 19.1134L15.1198 19.1134C15.9827 19.1134 16.6887 18.4074 16.6887 17.5446L16.6887 12.1906C16.4363 12.297 16.1742 12.385 15.9042 12.4529L15.9042 13.6224L1.78443 13.6224L1.78443 8.13137C1.78443 7.69875 2.13625 7.34693 2.56887 7.34693L9.10439 7.34693C9.10212 7.28225 9.10098 7.21729 9.10098 7.15206C9.10098 6.95287 9.11163 6.75617 9.1324 6.5625ZM15.1198 18.329C15.5524 18.329 15.9042 17.9772 15.9042 17.5446L15.9042 15.1913L1.78443 15.1913L1.78443 17.5446C1.78443 17.9772 2.13625 18.329 2.56887 18.329L15.1198 18.329Z" fill="black"/>
<path d="M9.1324 6.5625L9.36855 6.58783L9.39674 6.325L9.1324 6.325L9.1324 6.5625ZM16.6887 12.1906L16.9262 12.1906L16.9262 11.8327L16.5964 11.9718L16.6887 12.1906ZM15.9042 12.4529L15.8463 12.2226L15.6667 12.2678L15.6667 12.4529L15.9042 12.4529ZM15.9042 13.6224L15.9042 13.8599L16.1417 13.8599L16.1417 13.6224L15.9042 13.6224ZM1.78443 13.6224L1.54693 13.6224L1.54693 13.8599L1.78443 13.8599L1.78443 13.6224ZM9.10439 7.34693L9.10439 7.58443L9.35036 7.58443L9.34174 7.33861L9.10439 7.34693ZM15.9042 17.5446L16.1417 17.5446L15.9042 17.5446ZM15.9042 15.1913L16.1417 15.1913L16.1417 14.9538L15.9042 14.9538L15.9042 15.1913ZM1.78443 15.1913L1.78443 14.9538L1.54693 14.9538L1.54693 15.1913L1.78443 15.1913ZM1.78443 17.5446L2.02193 17.5446L1.78443 17.5446ZM9.1324 6.325L2.56887 6.325L2.56887 6.8L9.1324 6.8L9.1324 6.325ZM2.56887 6.325C1.57482 6.325 0.7625 7.13732 0.7625 8.13137L1.2375 8.13137C1.2375 7.39966 1.83716 6.8 2.56887 6.8L2.56887 6.325ZM0.7625 8.13137L0.762501 17.5446L1.2375 17.5446L1.2375 8.13137L0.7625 8.13137ZM0.762501 17.5446C0.762501 18.5386 1.57482 19.3509 2.56887 19.3509L2.56887 18.8759C1.83716 18.8759 1.2375 18.2763 1.2375 17.5446L0.762501 17.5446ZM2.56887 19.3509L15.1198 19.3509L15.1198 18.8759L2.56887 18.8759L2.56887 19.3509ZM15.1198 19.3509C16.1138 19.3509 16.9262 18.5386 16.9262 17.5446L16.4512 17.5446C16.4512 18.2763 15.8515 18.8759 15.1198 18.8759L15.1198 19.3509ZM16.9262 17.5446L16.9262 12.1906L16.4512 12.1906L16.4512 17.5446L16.9262 17.5446ZM16.5964 11.9718C16.3551 12.0735 16.1045 12.1577 15.8463 12.2226L15.9622 12.6833C16.244 12.6124 16.5175 12.5205 16.7809 12.4094L16.5964 11.9718ZM15.6667 12.4529L15.6667 13.6224L16.1417 13.6224L16.1417 12.4529L15.6667 12.4529ZM15.9042 13.3849L1.78443 13.3849L1.78443 13.8599L15.9042 13.8599L15.9042 13.3849ZM2.02193 13.6224L2.02193 8.13137L1.54693 8.13137L1.54693 13.6224L2.02193 13.6224ZM2.02193 8.13137C2.02193 7.82992 2.26742 7.58443 2.56887 7.58443L2.56887 7.10943C2.00508 7.10943 1.54693 7.56758 1.54693 8.13137L2.02193 8.13137ZM2.56887 7.58443L9.10439 7.58443L9.10439 7.10943L2.56887 7.10943L2.56887 7.58443ZM9.34174 7.33861C9.33957 7.27671 9.33848 7.21451 9.33848 7.15206L8.86348 7.15206C8.86348 7.22006 8.86467 7.2878 8.86703 7.35525L9.34174 7.33861ZM9.33848 7.15206C9.33848 6.96134 9.34868 6.7731 9.36855 6.58783L8.89626 6.53717C8.87459 6.73924 8.86348 6.94439 8.86348 7.15206L9.33848 7.15206ZM15.6667 17.5446C15.6667 17.846 15.4212 18.0915 15.1198 18.0915L15.1198 18.5665C15.6836 18.5665 16.1417 18.1083 16.1417 17.5446L15.6667 17.5446ZM15.6667 15.1913L15.6667 17.5446L16.1417 17.5446L16.1417 15.1913L15.6667 15.1913ZM1.78443 15.4288L15.9042 15.4288L15.9042 14.9538L1.78443 14.9538L1.78443 15.4288ZM2.02193 17.5446L2.02193 15.1913L1.54693 15.1913L1.54693 17.5446L2.02193 17.5446ZM2.56887 18.0915C2.26742 18.0915 2.02193 17.846 2.02193 17.5446L1.54693 17.5446C1.54693 18.1083 2.00508 18.5665 2.56887 18.5665L2.56887 18.0915ZM15.1198 18.0915L2.56887 18.0915L2.56887 18.5665L15.1198 18.5665L15.1198 18.0915Z" fill="black"/>
</svg>
