<svg width="20" height="20" viewBox="0 0 20 20" fill="none" xmlns="http://www.w3.org/2000/svg">
<path fill-rule="evenodd" clip-rule="evenodd" d="M1.66699 10.0003C1.66699 5.39783 5.39783 1.66699 10.0003 1.66699C14.6028 1.66699 18.3337 5.39782 18.3337 10.0003C18.3337 14.6028 14.6028 18.3337 10.0003 18.3337C5.39783 18.3337 1.66699 14.6028 1.66699 10.0003ZM2.50033 10.0003C2.50033 14.1357 5.86491 17.5003 10.0003 17.5003C14.1357 17.5003 17.5003 14.1357 17.5003 10.0003C17.5003 5.86491 14.1357 2.50032 10.0003 2.50032C5.86491 2.50033 2.50033 5.86491 2.50033 10.0003ZM10.0003 5.41699C8.85158 5.41699 7.91699 6.35158 7.91699 7.50033L8.75033 7.50033C8.75033 6.81116 9.31116 6.25033 10.0003 6.25032C10.6895 6.25032 11.2503 6.81116 11.2503 7.50033C11.2503 8.0732 11.019 8.29871 10.6695 8.63951L10.6687 8.64033L10.6683 8.64067C10.185 9.11186 9.58366 9.6982 9.58366 11.2499L10.417 11.2499C10.417 10.0497 10.8219 9.65502 11.2501 9.23759L11.2503 9.23741L11.2513 9.23643C11.6415 8.85584 12.0837 8.42453 12.0837 7.50033C12.0837 6.35157 11.1491 5.41699 10.0003 5.41699ZM10.0003 15.0003C10.4606 15.0003 10.8337 14.6272 10.8337 14.167C10.8337 13.7068 10.4606 13.3337 10.0003 13.3337C9.54009 13.3337 9.16699 13.7068 9.16699 14.167C9.16699 14.6272 9.54009 15.0003 10.0003 15.0003Z" fill="black"/>
<path d="M7.91699 7.50033L7.76699 7.50033L7.76699 7.65033L7.91699 7.65033L7.91699 7.50033ZM8.75033 7.50033L8.75033 7.65033L8.90033 7.65033L8.90033 7.50033L8.75033 7.50033ZM10.6695 8.63951L10.5648 8.53211L10.5648 8.53214L10.6695 8.63951ZM10.6687 8.64033L10.7732 8.74792L10.7734 8.7477L10.6687 8.64033ZM10.6683 8.64067L10.5638 8.53308L10.5636 8.53327L10.6683 8.64067ZM9.58366 11.2499L9.43366 11.2499L9.43366 11.3999L9.58366 11.3999L9.58366 11.2499ZM10.417 11.2499L10.417 11.3999L10.567 11.3999L10.567 11.2499L10.417 11.2499ZM11.2501 9.23759L11.1456 9.13002L11.1454 9.13017L11.2501 9.23759ZM11.2503 9.23741L11.3549 9.34498L11.3551 9.34472L11.2503 9.23741ZM11.2513 9.23643L11.1466 9.12905L11.1465 9.12912L11.2513 9.23643ZM10.0003 1.51699C5.31498 1.51699 1.51699 5.31498 1.51699 10.0003L1.81699 10.0003C1.81699 5.48067 5.48067 1.81699 10.0003 1.81699L10.0003 1.51699ZM18.4837 10.0003C18.4837 5.31498 14.6857 1.51699 10.0003 1.51699L10.0003 1.81699C14.52 1.81699 18.1837 5.48067 18.1837 10.0003L18.4837 10.0003ZM10.0003 18.4837C14.6857 18.4837 18.4837 14.6857 18.4837 10.0003L18.1837 10.0003C18.1837 14.52 14.52 18.1837 10.0003 18.1837L10.0003 18.4837ZM1.51699 10.0003C1.51699 14.6857 5.31498 18.4837 10.0003 18.4837L10.0003 18.1837C5.48067 18.1837 1.81699 14.52 1.81699 10.0003L1.51699 10.0003ZM10.0003 17.3503C5.94775 17.3503 2.65033 14.0529 2.65033 10.0003L2.35033 10.0003C2.35033 14.2186 5.78207 17.6503 10.0003 17.6503L10.0003 17.3503ZM17.3503 10.0003C17.3503 14.0529 14.0529 17.3503 10.0003 17.3503L10.0003 17.6503C14.2186 17.6503 17.6503 14.2186 17.6503 10.0003L17.3503 10.0003ZM10.0003 2.65032C14.0529 2.65032 17.3503 5.94775 17.3503 10.0003L17.6503 10.0003C17.6503 5.78206 14.2186 2.35032 10.0003 2.35032L10.0003 2.65032ZM2.65033 10.0003C2.65033 5.94775 5.94775 2.65033 10.0003 2.65032L10.0003 2.35032C5.78207 2.35033 2.35033 5.78207 2.35033 10.0003L2.65033 10.0003ZM8.06699 7.50033C8.06699 6.43442 8.93442 5.56699 10.0003 5.56699L10.0003 5.26699C8.76873 5.26699 7.76699 6.26873 7.76699 7.50033L8.06699 7.50033ZM8.75033 7.35033L7.91699 7.35033L7.91699 7.65033L8.75033 7.65033L8.75033 7.35033ZM10.0003 6.10032C9.22832 6.10032 8.60033 6.72832 8.60033 7.50033L8.90033 7.50033C8.90033 6.894 9.394 6.40033 10.0003 6.40033L10.0003 6.10032ZM11.4003 7.50033C11.4003 6.72832 10.7723 6.10032 10.0003 6.10032L10.0003 6.40033C10.6066 6.40032 11.1003 6.894 11.1003 7.50033L11.4003 7.50033ZM10.7742 8.74691C10.9456 8.5798 11.1064 8.42436 11.2199 8.23366C11.3373 8.03643 11.4003 7.80946 11.4003 7.50033L11.1003 7.50033C11.1003 7.76406 11.0477 7.93629 10.9621 8.08024C10.8725 8.23071 10.7429 8.35842 10.5648 8.53211L10.7742 8.74691ZM10.7734 8.7477L10.7742 8.74688L10.5648 8.53214L10.5639 8.53295L10.7734 8.7477ZM10.7728 8.74826L10.7732 8.74791L10.5641 8.53274L10.5638 8.53308L10.7728 8.74826ZM9.73366 11.2499C9.73366 10.4945 9.87978 9.98469 10.0774 9.61009C10.276 9.23377 10.5312 8.98389 10.773 8.74807L10.5636 8.53327C10.3222 8.76863 10.035 9.04752 9.81209 9.4701C9.58822 9.8944 9.43366 10.4537 9.43366 11.2499L9.73366 11.2499ZM10.417 11.0999L9.58366 11.0999L9.58366 11.3999L10.417 11.3999L10.417 11.0999ZM11.1454 9.13017C10.9325 9.33769 10.707 9.55618 10.5396 9.88159C10.3712 10.2089 10.267 10.6325 10.267 11.2499L10.567 11.2499C10.567 10.667 10.6652 10.2933 10.8064 10.0188C10.9485 9.74247 11.1395 9.55492 11.3548 9.34501L11.1454 9.13017ZM11.1458 9.12984L11.1456 9.13002L11.3547 9.34516L11.3549 9.34498L11.1458 9.12984ZM11.1465 9.12912L11.1455 9.1301L11.3551 9.34472L11.3561 9.34374L11.1465 9.12912ZM11.9337 7.50033C11.9337 7.9362 11.83 8.24875 11.6845 8.4962C11.5368 8.74737 11.3431 8.93736 11.1466 9.12905L11.3561 9.3438C11.5497 9.1549 11.7722 8.93894 11.9431 8.64826C12.1162 8.35386 12.2337 7.98866 12.2337 7.50033L11.9337 7.50033ZM10.0003 5.56699C11.0662 5.56699 11.9337 6.43442 11.9337 7.50033L12.2337 7.50033C12.2337 6.26873 11.2319 5.26699 10.0003 5.26699L10.0003 5.56699ZM10.6837 14.167C10.6837 14.5444 10.3777 14.8503 10.0003 14.8503L10.0003 15.1503C10.5434 15.1503 10.9837 14.7101 10.9837 14.167L10.6837 14.167ZM10.0003 13.4837C10.3777 13.4837 10.6837 13.7896 10.6837 14.167L10.9837 14.167C10.9837 13.6239 10.5434 13.1837 10.0003 13.1837L10.0003 13.4837ZM9.31699 14.167C9.31699 13.7896 9.62293 13.4837 10.0003 13.4837L10.0003 13.1837C9.45725 13.1837 9.01699 13.6239 9.01699 14.167L9.31699 14.167ZM10.0003 14.8503C9.62293 14.8503 9.31699 14.5444 9.31699 14.167L9.01699 14.167C9.01699 14.7101 9.45725 15.1503 10.0003 15.1503L10.0003 14.8503Z" fill="black"/>
</svg>
