<svg width="20" height="20" viewBox="0 0 20 20" fill="none" xmlns="http://www.w3.org/2000/svg">
<path fill-rule="evenodd" clip-rule="evenodd" d="M9.25771 17.0494C10.998 17.233 12.7447 16.766 14.1611 15.7383C15.5775 14.7106 16.5633 13.195 16.9286 11.4835C17.2938 9.77213 17.0127 7.98609 16.1393 6.46967C15.2659 4.95324 13.8621 3.81379 12.1985 3.27093C10.5349 2.72807 8.72916 2.82024 7.12946 3.52967C5.52975 4.23909 4.24927 5.51556 3.53482 7.11303L2.77408 6.7728C3.57258 4.98739 5.00371 3.56075 6.79162 2.76786C8.57952 1.97498 10.5976 1.87197 12.457 2.47869C14.3163 3.08541 15.8853 4.35892 16.8614 6.05374C17.8376 7.74857 18.1518 9.74474 17.7436 11.6575C17.3353 13.5702 16.2335 15.2642 14.6505 16.4128C13.0675 17.5614 11.1153 18.0834 9.17025 17.8781C7.22522 17.6729 5.425 16.7549 4.1166 15.3012C2.8082 13.8474 2.08422 11.9608 2.08422 10.005L2.91758 10.005C2.91758 11.7549 3.56534 13.443 4.73602 14.7437C5.9067 16.0444 7.51741 16.8657 9.25771 17.0494Z" fill="black" stroke="black" stroke-width="0.5"/>
<path fill-rule="evenodd" clip-rule="evenodd" d="M2.17188 3.42188L3.00523 3.42187L3.00523 6.75529L6.33865 6.75529L6.33865 7.58865L2.17188 7.58865L2.17188 3.42188Z" fill="black" stroke="black" stroke-width="0.5"/>
<path d="M9.58335 7.08594L8.75 7.08594L8.75 11.2527L12.9168 11.2527L12.9168 10.4194L9.58335 10.4194L9.58335 7.08594Z" fill="black" stroke="black" stroke-width="0.5"/>
</svg>
